# xmcd
#
# Track frame offsets:
#	150
#	10627
#	25305
#	39233
#	51617
#	66652
#	80473
#	94504
#	114638
#	126531
#	139540
#	153866
#	166111
#	185094
#	195110
#
# Disc length: 2737 seconds
#
# Revision: 0
# Processed by: cddbd v1.5.1PL2 Copyright (c) Steve Scherf et al.
# Submitted via: EasyCDDAExtractor 9.1.3.1
#
DISCID=c20aaf0f
DTITLE=Cousin Harley - Hillbilly Madness!
DYEAR=2006
DGENRE=Rockabilly
TTITLE0=My Babe
TTITLE1=Leave This Town
TTITLE2=How My Heart Yearns for You
TTITLE3=Noodlin'
TTITLE4=It's Obdacious
TTITLE5=Cotton Picker
TTITLE6=Whiskey Highway
TTITLE7=Who Will the Next Fool Be
TTITLE8=Get Ready With Those Tears
TTITLE9=Get That Bastard
TTITLE10=Leave Me Alone
TTITLE11=Burnin' Bridges
TTITLE12=Shake it Baby
TTITLE13=Dust Bowl Devil
TTITLE14=Thanks for Dinner
EXTD=
EXTT0=
EXTT1=
EXTT2=
EXTT3=
EXTT4=
EXTT5=
EXTT6=
EXTT7=
EXTT8=
EXTT9=
EXTT10=
EXTT11=
EXTT12=
EXTT13=
EXTT14=
PLAYORDER=
